<?xml version="1.0" encoding="utf-8"?>
<!-- Generator: Adobe Illustrator 19.2.1, SVG Export Plug-In . SVG Version: 6.00 Build 0)  -->
<svg version="1.1" id="Layer_3" xmlns="http://www.w3.org/2000/svg" xmlns:xlink="http://www.w3.org/1999/xlink" x="0px" y="0px"
	 viewBox="0 0 37.4 27.7" style="enable-background:new 0 0 37.4 27.7;" xml:space="preserve">
<style type="text/css">
	.st0{fill:#A5A5B5;}
</style>
<title>email</title>
<path class="st0" d="M31.5,27.7H5.8c-3.2,0-5.8-2.6-5.8-5.8V5.8C0,2.6,2.6,0,5.8,0h25.7c3.2,0,5.8,2.6,5.8,5.8v16.1
	C37.4,25.1,34.8,27.7,31.5,27.7z M18.9,20.2c-0.1,0.2-0.4,0.2-0.5,0c0,0,0,0,0,0L3.7,8.1v15.1c0,0.5,0.4,0.9,0.9,0.9h28.2
	c0.5,0,0.9-0.4,0.9-0.9V8L18.9,20.2z M19.2,14.9L32.9,3.7H4.7c-0.1,0-0.1,0.1-0.1,0.2l13.4,11.1C18.4,15.2,18.9,15.2,19.2,14.9z"/>
</svg>
