<svg id="Layer_3" data-name="Layer 3" xmlns="http://www.w3.org/2000/svg" viewBox="0 0 599.06 412.48"><defs><style>.cls-1{fill:#48c1ee;}</style></defs><title>favicon</title><path class="cls-1" d="M2269.54,2872.46c8.58,0.75,21.25,4.93,29.3,8.36-13.08,14.57-19.47,27.86-18.11,38a16.51,16.51,0,0,0,8.82,12.7,4.45,4.45,0,1,0,4.26-7.8,7.62,7.62,0,0,1-4.26-6.06c-0.81-6.07,3.5-17.47,17.29-32.41a31.65,31.65,0,0,1,2.59,2,4.83,4.83,0,0,0,4.72,1.09,4.64,4.64,0,0,0,1.16-.56,4.89,4.89,0,0,0,1.66-6c-0.58-1.65-1.17-3.35-1.76-5.08,13.6-14.13,16.74-29,16.89-39.21,0.14-9.17-2.23-18.09-5.75-21.68a4.4,4.4,0,0,0-6.2-.06,4.5,4.5,0,0,0-.16,6.28c2.52,2.74,8.69,24.43-8,44.91-2.4-7.56-6.29-20.71-8.17-27.64C2300.83,2849.24,2289.93,2865.9,2269.54,2872.46Z" transform="translate(-1905.94 -2754.99)"/><path class="cls-1" d="M2466.17,2989.6c-7-7-32.38-31.54-38.51-38.06-14-57-71.38-36.56-71.38-36.56l-13-12.49a2.49,2.49,0,0,0-4.2,2l1.06,17.73-15.83-4.8a2.5,2.5,0,0,0-2.79,3.79l11.79,17.47s-9.06,12.93-1.25,23.4l-19.4,23H2144.36l-8.13-14c31.53-3.77,56.52-14.46,72.46-31.67s23.11-40.4,21.91-68.4c0,0,0-.14,0-0.16s0.13,0,.19,0c1.2,0,5.23-.38,7.14-0.56l0-.07a109.26,109.26,0,0,0,26.37-4.44c13.49-4.21,22.76-10.85,27.77-19.81,6.44-12.52,6.94-15.07,7.45-24.45,1.38-25.36-10.46-48-30.44-59.14-15.22-8.46-48.72-17.15-102.27,19.75-1.44,1-145,107-258.33,282.11l-2.57,4,4.12,2.32c0.78,0.44,3.43,1.69,8.19,1.69,7.84,0,21.41-3.39,41.84-19.34L2080,2947c-10.09,11.47-92.85,93.37-106.6,106.22,18.68-2.71,54.53-18.29,113.85-81.54,3.72,0.43,11.59.79,21.84,0.87l7.31,12.55h-20.86l-39.66,40.06c33.68,79.81,121.6,142.32,224.82,142.32,102.74,0,190.33-61.64,224.35-140.92Zm-200.55-174.52a10.92,10.92,0,1,1-10.92,10.92A10.92,10.92,0,0,1,2265.62,2815.08Zm127.57,137.12c12.41,0,22.69,7.89,24.52,19.89h-49C2370.5,2960.09,2380.78,2952.2,2393.19,2952.2ZM2367.48,2929a7.88,7.88,0,1,1-7.88,7.88A7.88,7.88,0,0,1,2367.48,2929Zm-7.07,87.13c-2.3,14-15.23,25-30.84,25s-28.54-11-30.84-25h61.68Zm-100.07,0c-2.3,14-15.23,25-30.84,25s-28.54-11-30.84-25h61.68ZM2118.8,2915.82l77-59a3.91,3.91,0,0,1,6,1.57c10.69,25.57,2.51,57.23-21.67,75.74a65,65,0,0,1-55.41,11.81C2111,2942.49,2107.53,2924.45,2118.8,2915.82Zm15.34,69.27h-7.58l-7.39-12.78c2.38-.09,4.83-0.23,7.35-0.4Zm-35.55,31h61.68c-2.3,14-15.23,25-30.84,25S2100.89,3030.09,2098.6,3016.09Zm51.15,47h61.68c-2.3,13-15.23,25-30.84,25S2152,3076.09,2149.74,3063.09Zm79.76,72c-15.61,0-28.54-11-30.84-25h61.68C2258,3124.09,2245.11,3135.11,2229.5,3135.11Zm20.31-72h61.68c-2.3,13-15.23,25-30.84,25S2252.11,3076.09,2249.81,3063.09Zm79.76,72c-15.61,0-28.54-11-30.84-25h61.68C2358.12,3124.09,2345.18,3135.11,2329.58,3135.11Zm51.15-47c-15.61,0-28.54-12-30.84-25h61.68C2409.26,3076.09,2396.33,3088.11,2380.72,3088.11Zm48.92-47c-15.61,0-28.54-11-30.84-25h61.68C2458.19,3030.09,2445.25,3041.11,2429.65,3041.11Z" transform="translate(-1905.94 -2754.99)"/></svg>