<svg id="type_logo" data-name="type logo" xmlns="http://www.w3.org/2000/svg" viewBox="0 0 270 101.5"><defs><style>.cls-1,.cls-2{fill:#fff;}.cls-2{fill-opacity:0;}</style></defs><title>nestLogo</title><path class="cls-1" d="M1129.67,8726.44v18.2h-10.84v-16.39c0-1,0-2.77-.12-4.4-0.24-3.07-1.93-4.88-5.18-4.88s-5.66,3.19-5.66,10.48v15.18H1097V8716l10.84-3.54v3.76a12.42,12.42,0,0,1,10.12-4.61c6.63,0,10.54,3.13,11.39,8.74A42.35,42.35,0,0,1,1129.67,8726.44Z" transform="translate(-970.5 -8662.59)"/><path class="cls-1" d="M1167.15,8731.26h-22.41c0.54,5.36,2.89,6.87,6,6.87s4.94-1.57,5.36-4h10.66c-1.87,7.29-7.89,11.39-16.15,11.39-9.22,0-16.57-5.48-16.57-16.81,0-9.4,6.45-17.05,17.17-17.05s16.15,8.19,16.15,16.51A29,29,0,0,1,1167.15,8731.26Zm-22.05-6.63H1156c-0.6-3.8-2.47-5.66-5.36-5.66S1145.82,8720.66,1145.09,8724.63Z" transform="translate(-970.5 -8662.59)"/><path class="cls-1" d="M1198.78,8721.86h-10.66c-0.48-2.23-1.57-3.49-3.49-3.49a2.38,2.38,0,0,0-2.59,2.35c0,1.81,1.45,3,7.59,4.52,5.84,1.45,10,4,10,10.18,0,6.87-6.45,10.06-14.22,10.06-8.74,0-14.7-3.61-15.54-10.84h10.66a5,5,0,0,0,4.82,4.1c1.93,0,3.43-.78,3.43-2.47,0-2-2-3.19-7.77-4.52-6.15-1.45-9.82-4.28-9.82-9.76,0-6.39,5.54-10.36,14.1-10.36C1193.29,8711.62,1197.93,8716,1198.78,8721.86Z" transform="translate(-970.5 -8662.59)"/><path class="cls-1" d="M1216.85,8731.32c0,1.08,0,2.29.06,3.13,0.24,3.25,1.27,4,6.39,3.74v6.75a36.52,36.52,0,0,1-6.39.54c-8,0-10.42-2.47-10.78-7.41-0.12-1.87-.12-3.37-0.12-5.18v-13.44h-5.12v-6.75H1206v-8.31l10.85,2.28v6H1224v6.75h-7.11v11.87Z" transform="translate(-970.5 -8662.59)"/><path class="cls-1" d="M1044.76,8699a19,19,0,0,1,4.88,1.39c-2.18,2.42-3.24,4.64-3,6.33a2.75,2.75,0,0,0,1.47,2.11,0.74,0.74,0,1,0,.71-1.3,1.27,1.27,0,0,1-.71-1c-0.14-1,.58-2.91,2.88-5.39a5.27,5.27,0,0,1,.43.34,0.8,0.8,0,0,0,.78.18,0.77,0.77,0,0,0,.19-0.09,0.81,0.81,0,0,0,.28-1l-0.29-.84a9.49,9.49,0,0,0,2.81-6.52,5.66,5.66,0,0,0-1-3.61,0.73,0.73,0,0,0-1,0,0.75,0.75,0,0,0,0,1c0.42,0.46,1.45,4.06-1.33,7.47-0.4-1.26-1-3.45-1.36-4.6A9,9,0,0,1,1044.76,8699Z" transform="translate(-970.5 -8662.59)"/><path class="cls-1" d="M1071.07,8712.14c-2.33-9.48-11.88-6.08-11.88-6.08L1057,8704a0.42,0.42,0,0,0-.7.33l0.18,3-2.63-.8a0.42,0.42,0,0,0-.46.63l2,2.91s-1.51,2.14-.21,3.88l-3.23,3.82h-28l-1.35-2.32c5.25-.63,9.4-2.4,12.06-5.26s3.85-6.72,3.65-11.38v0h0c0.2,0,.87-0.06,1.19-0.09h0a18.18,18.18,0,0,0,4.39-.74,7.72,7.72,0,0,0,5.86-7.36,10.4,10.4,0,0,0-5.07-9.84c-2.53-1.41-8.11-2.85-17,3.29a196.11,196.11,0,0,0-43,46.94l-0.43.66,0.69,0.39a2.82,2.82,0,0,0,1.36.28c1.3,0,3.56-.56,7-3.22l19.94-17.62c-1.68,1.91-15.45,15.54-17.74,17.68,3.11-.45,9.07-3,18.95-13.57,0.62,0.07,1.93.12,3.63,0.13l1.22,2.07h-3.47l-6.6,6.68c5.6,13.28,20.23,23.69,37.41,23.69s31.67-10.25,37.33-23.45C1083.94,8724.62,1072.09,8713.23,1071.07,8712.14Zm-27.27-22.68a1.82,1.82,0,1,1-1.48,1.48A1.82,1.82,0,0,1,1043.8,8689.46Zm21.54,22.76a4,4,0,0,1,4.08,3.31h-8.16A4,4,0,0,1,1065.34,8712.22Zm-4.53-3.81a1.31,1.31,0,1,1-1,1A1.31,1.31,0,0,1,1060.8,8708.41Zm-0.92,14.45a5.24,5.24,0,0,1-10.26,0h10.26Zm-16.65,0a5.24,5.24,0,0,1-10.26,0h10.26Zm-23.55-16.66,12.81-9.81a0.65,0.65,0,0,1,1,.26,11,11,0,0,1-12.83,14.57A2.85,2.85,0,0,1,1019.68,8706.2Zm2.55,11.5H1021l-1.23-2.11,1.22-.07Zm-5.92,5.16h10.26A5.24,5.24,0,0,1,1016.32,8722.85Zm8.51,7.82h10.26A5.24,5.24,0,0,1,1024.83,8730.67Zm13.27,12a5.14,5.14,0,0,1-5.13-4.16h10.26A5.14,5.14,0,0,1,1038.1,8742.66Zm3.38-12h10.26A5.24,5.24,0,0,1,1041.48,8730.67Zm13.27,12a5.14,5.14,0,0,1-5.13-4.16h10.26A5.14,5.14,0,0,1,1054.75,8742.66Zm8.51-7.82a5.3,5.3,0,0,1-5.13-4.16h10.26A5.3,5.3,0,0,1,1063.26,8734.84Zm8.14-7.82a5.14,5.14,0,0,1-5.13-4.16h10.26A5.14,5.14,0,0,1,1071.4,8727Z" transform="translate(-970.5 -8662.59)"/><rect class="cls-2" width="270" height="101.5"/></svg>