<?xml version="1.0" encoding="utf-8"?>
<!-- Generator: Adobe Illustrator 21.0.2, SVG Export Plug-In . SVG Version: 6.00 Build 0)  -->
<svg version="1.1" id="type_logo" xmlns="http://www.w3.org/2000/svg" xmlns:xlink="http://www.w3.org/1999/xlink" x="0px" y="0px"
	 viewBox="0 0 270 101.5" style="enable-background:new 0 0 270 101.5;" xml:space="preserve">
<style type="text/css">
	.st0{fill:#FFFFFF;}
</style>
<title>nestLogo</title>
<path class="st0" d="M74.3,36.4c1.7,0.2,3.3,0.7,4.9,1.4c-2.2,2.4-3.2,4.6-3,6.3c0.1,0.9,0.7,1.7,1.5,2.1c0.4,0.2,0.8,0.1,1-0.3
	s0.1-0.8-0.3-1c-0.4-0.2-0.7-0.6-0.7-1c-0.1-1,0.6-2.9,2.9-5.4c0.1,0.1,0.3,0.2,0.4,0.3c0.2,0.2,0.5,0.3,0.8,0.2
	c0.1,0,0.1-0.1,0.2-0.1c0.3-0.2,0.4-0.6,0.3-1l-0.3-0.8c1.7-1.7,2.8-4.1,2.8-6.5c0.1-1.3-0.3-2.6-1-3.6c-0.3-0.3-0.7-0.3-1,0
	c-0.3,0.3-0.3,0.7,0,1c0.4,0.5,1.4,4.1-1.3,7.5c-0.4-1.3-1-3.5-1.4-4.6C79.1,33.5,76.9,35.6,74.3,36.4z"/>
<path class="st0" d="M100.6,49.5c-2.3-9.5-11.9-6.1-11.9-6.1l-2.2-2.1c-0.2-0.2-0.4-0.1-0.6,0c-0.1,0.1-0.1,0.2-0.1,0.3l0.2,3
	l-2.6-0.8c-0.2-0.1-0.5,0.1-0.5,0.3c0,0.1,0,0.2,0.1,0.3l2,2.9c0,0-1.5,2.1-0.2,3.9l-3.2,3.8h-28l-1.3-2.3c5.2-0.6,9.4-2.4,12.1-5.3
	s3.8-6.7,3.7-11.4l0,0l0,0c0.2,0,0.9-0.1,1.2-0.1l0,0c1.5-0.1,3-0.3,4.4-0.7c3.4-0.8,5.8-3.9,5.9-7.4c0.3-4-1.6-7.8-5.1-9.8
	c-2.5-1.4-8.1-2.8-17,3.3c-16.8,13.2-31.3,29.1-43,46.9l-0.4,0.7l0.7,0.4c0.4,0.2,0.9,0.3,1.4,0.3c1.3,0,3.6-0.6,7-3.2l19.9-17.6
	C41.1,50.8,27.3,64.5,25,66.6c3.1-0.5,9.1-3,19-13.6c0.6,0.1,1.9,0.1,3.6,0.1l1.2,2.1h-3.5l-6.6,6.7C44.3,75.2,59,85.6,76.1,85.6
	s31.7-10.2,37.3-23.5C113.4,62,101.6,50.6,100.6,49.5z M73.3,26.9c1-0.2,1.9,0.5,2.1,1.5c0.2,1-0.5,1.9-1.5,2.1
	c-1,0.2-1.9-0.5-2.1-1.5c0-0.2,0-0.4,0-0.6C72,27.6,72.5,27,73.3,26.9L73.3,26.9z M94.8,49.6c2-0.1,3.7,1.3,4.1,3.3h-8.2
	C91.1,51,92.8,49.6,94.8,49.6z M90.3,45.8c0.7-0.2,1.4,0.3,1.6,1s-0.3,1.4-1,1.6s-1.4-0.3-1.6-1c0-0.2,0-0.4,0-0.6
	C89.4,46.3,89.8,45.9,90.3,45.8L90.3,45.8z M89.4,60.3c-0.6,2.8-3.4,4.7-6.2,4.1c-2-0.4-3.6-2-4.1-4.1H89.4z M72.7,60.3
	c-0.6,2.8-3.4,4.7-6.2,4.1c-2-0.4-3.6-2-4.1-4.1H72.7z M49.2,43.6L62,33.8c0.3-0.2,0.7-0.2,0.9,0.1c0,0,0.1,0.1,0.1,0.1
	c2.1,5.7-0.7,12-6.4,14.2c-2,0.8-4.3,0.9-6.4,0.4c-1.5-0.4-2.4-2-2-3.5C48.3,44.5,48.7,44,49.2,43.6L49.2,43.6z M51.7,55.1h-1.2
	L49.3,53l1.2-0.1L51.7,55.1z M45.8,60.3h10.3c-0.6,2.8-3.4,4.6-6.2,4.1C47.8,63.9,46.2,62.3,45.8,60.3L45.8,60.3z M54.3,68.1h10.3
	c-0.6,2.8-3.4,4.6-6.2,4.1C56.3,71.7,54.8,70.1,54.3,68.1L54.3,68.1z M67.6,80.1c-2.5,0-4.7-1.7-5.1-4.2h10.3
	C72.2,78.4,70.1,80.1,67.6,80.1L67.6,80.1z M71,68.1h10.3c-0.6,2.8-3.4,4.6-6.2,4.1C73,71.7,71.4,70.1,71,68.1L71,68.1z M84.2,80.1
	c-2.5,0-4.7-1.7-5.1-4.2h10.3C88.9,78.4,86.7,80.1,84.2,80.1L84.2,80.1z M92.8,72.3c-2.5,0-4.6-1.7-5.1-4.2h10.3
	C97.4,70.5,95.2,72.2,92.8,72.3L92.8,72.3z M100.9,64.5c-2.5,0-4.7-1.7-5.1-4.2H106C105.5,62.7,103.4,64.5,100.9,64.5L100.9,64.5z"
	/>
<path class="st0" d="M183.1,82.8h-0.7c-5.1,0-9.6-1.9-13.4-5.8c-3.8-3.9-5.7-8.3-5.7-13.5c0-5.1,1.9-9.6,5.7-13.3
	c3.8-3.7,8.4-5.6,14-5.6c5.6,0,10.3,2.2,14.3,6.6l-25.4,25.1c3.5,2.8,6.9,4.2,10.1,4.2c3.2,0,6.1-0.7,8.7-2.2
	c2.6-1.5,4.7-3.5,6.4-5.9v4.1C193.2,80.7,188.6,82.8,183.1,82.8z M182.3,46.9c-4.3,0-8.1,1.7-11.4,5c-3.3,3.3-5,7.1-5,11.5
	c0,4.3,1.4,8.1,4.3,11.3l23.6-23.4C190.4,48.4,186.6,46.9,182.3,46.9z"/>
<path class="st0" d="M212.9,46.7c-1.4,0-2.6,0.5-3.7,1.4c-1.1,0.9-1.6,2.1-1.6,3.4c0,1.3,0.6,2.6,1.8,3.7c1.2,1.1,2.7,2.2,4.4,3.1
	c1.7,0.9,3.4,2,5.1,3c1.7,1.1,3.2,2.5,4.4,4.1c1.2,1.7,1.8,3.6,1.8,5.7c0,3.2-1.2,5.9-3.6,8.1c-2.4,2.2-5.3,3.4-8.7,3.4
	c-2.2,0-4.2-0.5-6-1.4c-1.9-0.9-3.2-2.2-4.1-3.8v-3.9c2,4.5,5.3,6.8,9.9,6.8c2.8,0,5.2-0.9,7.1-2.6c1.9-1.7,2.9-3.7,2.9-5.8
	c0-2.1-0.6-3.9-1.8-5.4c-1.2-1.5-2.7-2.7-4.4-3.7c-1.7-1-3.4-2-5.1-3c-1.7-1-3.2-2.2-4.4-3.6c-1.2-1.4-1.8-3.1-1.8-5
	c0-1.9,0.8-3.5,2.3-4.9c1.5-1.3,3.5-2,5.9-2c2.4,0,4.5,0.9,6.2,2.8v3.3C217.7,48,215.5,46.7,212.9,46.7z"/>
<path class="st0" d="M245.8,80.1v2.3c-3.8,0-7.1-1.3-9.8-3.8c-2.7-2.6-4-5.8-4-9.8V30.8h2.6v14.7h11.2v2.3h-11.2v20.9
	c0,3.3,1.1,6,3.3,8.2C240.1,79,242.7,80.1,245.8,80.1z"/>
<path class="st0" d="M140.5,44.6c-0.1,0-0.2,0-0.3,0v2.3c0.1,0,0.2,0,0.3,0c3.7,0,6.9,1.4,9.5,4.1c2.6,2.8,3.9,6,3.9,9.7v21.2h2.6
	V60.7c0-4.5-1.5-8.3-4.6-11.4C148.9,46.1,145.1,44.4,140.5,44.6z"/>
<path class="st0" d="M141.8,44.6c0.1,0,0.2,0,0.3,0v2.3c-0.1,0-0.2,0-0.3,0c-3.7,0-6.9,1.4-9.5,4.1c-2.6,2.8-3.9,6-3.9,9.7v21.2
	h-2.6V60.7c0-4.5,1.5-8.3,4.6-11.4C133.5,46.1,137.3,44.4,141.8,44.6z"/>
</svg>
