<svg id="Layer_1" data-name="Layer 1" xmlns="http://www.w3.org/2000/svg" viewBox="0 0 600.97 600.97"><defs><style>.cls-1{fill:#fff;}</style></defs><title>phone</title><path class="cls-1" d="M399.18,310.45c-1.15-10.61,2.07-20.43,5.53-30.19a176.2,176.2,0,0,1,15.93-33.17c8.6-14.07,21.19-22.36,37-26.14a139.44,139.44,0,0,1,22.7-3.21,9.36,9.36,0,0,1,5.52,1.32,23.12,23.12,0,0,1,8.19,8c6.1,9.88,11.63,20.09,17.14,30.3,7,12.95,14.78,25.41,22.69,37.8a70.26,70.26,0,0,1,4.22,7.45c3.25,6.79,2.2,12.91-2.82,18.42s-11,10.49-16.75,15.46C511.71,342.4,504.62,348,498,354.14c-3.29,3.09-6.3,6.45-7.08,11.19a16.45,16.45,0,0,0,1.36,8.88c3,7.44,7.07,14.31,11.12,21.18A292.55,292.55,0,0,0,626.32,509.95a41,41,0,0,0,5.84,2.33,14,14,0,0,0,13.95-2.69c5-4.05,8.9-9.11,13-14,7.06-8.28,13.74-16.89,21.49-24.56,1.12-1.11,2.34-2.12,3.55-3.13,5.08-4.26,10.65-4.88,16.68-2.24,5.85,2.56,11.14,6.1,16.65,9.26q26.85,15.43,53.65,30.95c5.33,3.08,10,7.07,15,10.63a1.64,1.64,0,0,1,.68,1.51c0,4.63.63,9.36-.14,13.86-1.79,10.46-3.54,21-9.17,30.36a67.24,67.24,0,0,1-20.19,21.12c-10,6.78-21,11.32-32.28,15.31-7.39,2.61-14.87,4.75-22.74,5.38a91.52,91.52,0,0,1-23.42-1c-27.5-4.9-53.45-14.48-78.56-26.49A339,339,0,0,1,535,535.37a398.48,398.48,0,0,1-52.67-50.91,519,519,0,0,1-42.07-56.28c-13.65-20.91-23.42-43.58-30.68-67.39q-5.25-17.24-8.83-34.91C400.74,325.72,399.18,311.5,399.18,310.45Z" transform="translate(-296.11 -101.1)"/><path class="cls-1" d="M625.41,272.88c26.08,0.32,49.4,8.47,69.6,25,21.94,17.94,35.08,41.13,40,69A123.53,123.53,0,0,1,736.69,388a12.94,12.94,0,0,1-6.47,11.87,10.07,10.07,0,0,1-11,0,9.82,9.82,0,0,1-5.41-9.32,92.33,92.33,0,0,0-3.5-28.62c-10.34-34-32.87-55.37-67.34-64.09a93.3,93.3,0,0,0-21.22-2.36,27.1,27.1,0,0,1-5.75-.27,10.5,10.5,0,0,1-8.19-8.63A11.85,11.85,0,0,1,613.18,275a13.38,13.38,0,0,1,7.31-2.13h4.92Z" transform="translate(-296.11 -101.1)"/><path class="cls-1" d="M696.61,388a15.89,15.89,0,0,1-.89,7.92c-2.83,6.52-10.9,10.06-18.69,4.37a1.66,1.66,0,0,1-.68-1,45.7,45.7,0,0,1-1.79-10.51,54.36,54.36,0,0,0-46.61-53.57,70.1,70.1,0,0,0-10.32-.72c-6.26,0-10.79-4-11.21-9.77A12,12,0,0,1,616,312.65c4.86-.79,9.71-0.16,14.51.43a72.68,72.68,0,0,1,36.29,14.7c16.63,12.87,26.5,29.64,29.15,50.57,0.23,1.8.47,3.6,0.59,5.41C696.69,385.15,696.61,386.56,696.61,388Z" transform="translate(-296.11 -101.1)"/><circle class="cls-1" cx="331.94" cy="280.5" r="21.96"/><path class="cls-1" d="M596.59,702.08a300.49,300.49,0,1,1,212.48-88A298.52,298.52,0,0,1,596.59,702.08Zm0-582a281.49,281.49,0,1,0,199,82.45A279.64,279.64,0,0,0,596.59,120.1Z" transform="translate(-296.11 -101.1)"/></svg>