<svg id="Layer_1" data-name="Layer 1" xmlns="http://www.w3.org/2000/svg" viewBox="0 0 600.97 600.97"><defs><style>.cls-1{fill:#fff;}</style></defs><title>phone</title><path class="cls-1" d="M613.83,1026.33c26.08,0.32,49.4,8.47,69.6,25,21.94,17.94,35.08,41.13,40,69a123.53,123.53,0,0,1,1.67,21.13,12.94,12.94,0,0,1-6.47,11.87,10.07,10.07,0,0,1-11,0,9.82,9.82,0,0,1-5.41-9.32,92.33,92.33,0,0,0-3.5-28.62c-10.34-34-32.87-55.37-67.34-64.09a93.3,93.3,0,0,0-21.22-2.36,27.1,27.1,0,0,1-5.75-.27,10.5,10.5,0,0,1-8.19-8.63,11.85,11.85,0,0,1,5.33-11.63,13.38,13.38,0,0,1,7.31-2.13h4.92Z" transform="translate(-284.53 -854.56)"/><path class="cls-1" d="M685,1141.43a15.89,15.89,0,0,1-.89,7.92c-2.83,6.52-10.9,10.06-18.69,4.37a1.66,1.66,0,0,1-.68-1,45.7,45.7,0,0,1-1.79-10.51,54.36,54.36,0,0,0-46.61-53.57,70.1,70.1,0,0,0-10.32-.72c-6.26,0-10.79-4-11.21-9.77a12,12,0,0,1,9.63-12.07c4.86-.79,9.71-0.16,14.51.43a72.68,72.68,0,0,1,36.29,14.7c16.63,12.87,26.5,29.64,29.15,50.57,0.23,1.8.47,3.6,0.59,5.41C685.11,1138.61,685,1140,685,1141.43Z" transform="translate(-284.53 -854.56)"/><circle class="cls-1" cx="331.94" cy="280.5" r="21.96"/><path class="cls-1" d="M585,1455.53a300.49,300.49,0,1,1,212.48-88A298.52,298.52,0,0,1,585,1455.53Zm0-582a281.49,281.49,0,1,0,199,82.45A279.64,279.64,0,0,0,585,873.56Z" transform="translate(-284.53 -854.56)"/><path class="cls-1" d="M771.06,1304.09a142.79,142.79,0,0,0,4.07-18.74c0.77-4.49.12-9.23,0.14-13.86a1.64,1.64,0,0,0-.68-1.51c-5-3.56-9.68-7.55-15-10.63q-26.82-15.49-53.65-30.95c-5.51-3.16-10.8-6.71-16.65-9.26-6-2.64-11.6-2-16.68,2.24-1.21,1-2.43,2-3.55,3.13-4.35,4.3-8.35,8.91-12.28,13.58Z" transform="translate(-284.53 -854.56)"/><path class="cls-1" d="M509.45,1087.82a159.53,159.53,0,0,0,14.26-13.31c5-5.51,6.07-11.63,2.82-18.42a70.25,70.25,0,0,0-4.22-7.45c-7.91-12.39-15.7-24.85-22.69-37.8-5.51-10.21-11-20.42-17.14-30.3a23.12,23.12,0,0,0-8.19-8,9.36,9.36,0,0,0-5.52-1.32,139.45,139.45,0,0,0-22.7,3.21c-0.62.15-1.22,0.31-1.82,0.47Z" transform="translate(-284.53 -854.56)"/><path class="cls-1" d="M646.92,1249.85c-3.9,4.61-7.66,9.35-12.39,13.19a14,14,0,0,1-13.95,2.69,40.94,40.94,0,0,1-5.84-2.33,292.54,292.54,0,0,1-122.86-114.56c-4.05-6.87-8.16-13.74-11.12-21.18a16.45,16.45,0,0,1-1.36-8.88c0.78-4.74,3.79-8.1,7.08-11.19,3.64-3.42,7.44-6.65,11.27-9.86L430,980.45a55,55,0,0,0-21,20.1,176.2,176.2,0,0,0-15.93,33.17c-3.46,9.76-6.68,19.58-5.53,30.19,0,1.05,1.55,15.27,1.59,15.44q3.6,17.66,8.83,34.91c7.26,23.81,17,46.48,30.68,67.39a519,519,0,0,0,42.07,56.28,398.47,398.47,0,0,0,52.67,50.91A339,339,0,0,0,588.75,1330c25.11,12,51.06,21.59,78.56,26.49a91.52,91.52,0,0,0,23.42,1c7.87-.63,15.35-2.77,22.74-5.38,11.29-4,22.31-8.53,32.28-15.31a67.55,67.55,0,0,0,18.85-19Z" transform="translate(-284.53 -854.56)"/></svg>