<svg id="Layer_3" data-name="Layer 3" xmlns="http://www.w3.org/2000/svg" viewBox="0 0 109.25 109.25"><defs><style>.cls-1{fill:none;stroke:#3cacdd;stroke-miterlimit:10;stroke-width:9px;}.cls-2{fill:#3cacdd;}</style></defs><title>questionMark</title><circle class="cls-1" cx="54.62" cy="54.62" r="50.12"/><path class="cls-2" d="M1179,8404.74c-12.22,0-20.07,6.32-21,16.94a1.31,1.31,0,0,0,1.3,1.44H1171a1.3,1.3,0,0,0,1.29-1.17c0.46-4.87,2.47-6.75,5.71-6.75,3.8,0,5.55,2,5.55,5.94,0,2.77-1.59,5.22-5.86,9.74-3.41,3.64-5,5.93-5.15,12.82l0,4.53a1.3,1.3,0,0,0,1.3,1.3h8.91a1.3,1.3,0,0,0,1.3-1.29l0-4.46s0-.1,0-0.15c0.48-4.53,2-6,5.93-9.26,5.71-4.6,7.82-8,7.82-14.33C1197.88,8410.29,1191.25,8404.74,1179,8404.74Z" transform="translate(-1123.88 -8381.22)"/><path class="cls-2" d="M1178.49,8455.8a6.63,6.63,0,1,0,6.66,6.66A6.38,6.38,0,0,0,1178.49,8455.8Z" transform="translate(-1123.88 -8381.22)"/></svg>