<svg id="Layer_2" data-name="Layer 2" xmlns="http://www.w3.org/2000/svg" viewBox="0 0 118.5 118.5"><defs><style>.cls-1{fill:#fff;}.cls-2{fill:#8dddf5;}.cls-3{fill:#fbfcfc;}</style></defs><title>surveyClipboard2</title><circle class="cls-1" cx="59.25" cy="59.25" r="59.25"/><path class="cls-2" d="M578,417.8c0-9.16,0-18.32,0-27.48,0-6.54,1.83-8.25,8.33-8.32,1.5,0,3-.11,4.49,0,2.62,0.22,4-.57,4.09-3.52,0.1-3.76,2.84-5.17,6.1-5.25q9.73-.25,19.48,0c3.39,0.1,6.37,1.32,6.45,5.43,0.05,2.7,1.39,3.22,3.78,3.34,13.11,0.66,13.11.71,13.11,14q0,24.48,0,49c0,7.48-1.54,8.95-9.12,9q-24.47,0-48.95,0c-6,0-7.7-1.69-7.74-7.72C577.94,436.78,578,427.29,578,417.8Z" transform="translate(-550 -357)"/><path class="cls-3" d="M640,415.32c0,8.49-.11,17,0.05,25.46,0.06,3.24-1.12,4.44-4.34,4.42q-24.71-.13-49.42,0c-3.59,0-4.52-1.49-4.5-4.8q0.16-25.21,0-50.43c0-3.34,1.17-4.23,4.34-4.2q24.71,0.19,49.43,0c3.5,0,4.61,1.1,4.52,4.58C639.85,398.67,640,407,640,415.32Z" transform="translate(-550 -357)"/><path class="cls-2" d="M629,417.46a6.2,6.2,0,0,1-2.07,3.47c-5,5.1-10.06,10.13-14.94,15.33-2.38,2.54-4.29,2.45-6.62,0-3.53-3.74-7.18-7.37-10.91-10.92-2.42-2.3-1.87-4.18.18-6.34s4-3,6.4-.75a4.06,4.06,0,0,0,.36.34c2.75,1.94,4.29,6.76,7.81,5.92,2.75-.66,4.77-4.35,7.14-6.66,1.66-1.62,3.34-3.23,5.09-4.75a3,3,0,0,1,4.12-.06C627.1,414.2,628.84,415.31,629,417.46Z" transform="translate(-550 -357)"/><path class="cls-2" d="M610.76,395.87c-5.48,0-11,0-16.44,0-1.55,0-3.23-.14-3.22-2.19s1.69-2.22,3.23-2.23q16.43,0,32.87,0c1.69,0,3.62.12,3.43,2.51-0.16,2-2,1.91-3.45,1.91C621.72,395.89,616.24,395.88,610.76,395.87Z" transform="translate(-550 -357)"/><path class="cls-2" d="M610.52,403.16c-5.15,0-10.29,0-15.44,0-1.55,0-3.75.48-3.87-1.94s2-2.18,3.63-2.18q16.19,0,32.37,0c1.48,0,3.34-.21,3.37,1.91,0,2.41-2,2.23-3.64,2.23C621.47,403.18,616,403.16,610.52,403.16Z" transform="translate(-550 -357)"/><path class="cls-2" d="M601.33,410.56c-2.66,0-5.32.06-8,0a2.09,2.09,0,0,1-2.27-2.14c0-1.5,1.17-1.94,2.39-1.95q8-.07,15.94,0c1.23,0,2.37.44,2.49,1.9,0.15,1.84-1.22,2.19-2.61,2.23-2.66.07-5.31,0-8,0v0Z" transform="translate(-550 -357)"/></svg>